<svg xmlns="http://www.w3.org/2000/svg" version="1.1" xmlns:xlink="http://www.w3.org/1999/xlink" xmlns:svgjs="http://svgjs.dev/svgjs" width="1440" height="560" preserveAspectRatio="none" viewBox="0 0 1440 560"><g mask="url(&quot;#SvgjsMask1004&quot;)" fill="none"><rect width="1440" height="560" x="0" y="0" fill="rgba(24, 24, 24, 1)"></rect><path d="M0 9.33C4.41 -6.86 18.68 1.3 38.18 0C88.68 -3.37 89.09 0 140 0C210 0 210 0 280 0C323.75 0 338.5 -23.2 367.5 0C408.5 32.8 378.51 105.97 420 112C474.76 119.97 484.68 48.59 560 28C624.68 10.32 638.91 9.41 700 35.47C770.16 65.41 792.94 74.7 822.5 140C848.29 196.97 804.29 213.31 810.7 280C813.04 304.31 819.55 322 840 322C880.87 322 929 315.89 933.33 280C939.98 224.89 875.08 213.63 861.96 140C850.14 73.63 848.35 41.63 883.45 0C907.37 -28.37 931.72 0 980 0C1045.12 0 1050.8 -8.91 1110.23 0C1120.8 1.59 1115.63 21 1120 21C1124.2 21 1117.31 1.51 1127.37 0C1187.31 -8.99 1193.68 0 1260 0C1308.46 0 1313.26 -12.33 1356.92 0C1383.26 7.44 1377.79 39.53 1400 39.53C1424.04 39.53 1420.62 8.13 1449.41 0C1490.62 -11.64 1522.21 -27.5 1540 0C1567.5 42.5 1540 70 1540 140C1540 210 1540 210 1540 280C1540 323.75 1547.29 325.35 1540 367.5C1535.18 395.35 1527.97 393.79 1515.77 420C1483.17 490.04 1494.05 507.22 1450.4 560C1436.16 577.22 1425.2 560 1400 560C1330 560 1330 560 1260 560C1190 560 1190 560 1120 560C1050 560 1050 560 980 560C910 560 910 560 840 560C776.37 560 740.13 593.27 712.73 560C682.48 523.27 729.97 484.56 724.71 420C723.6 406.38 712.79 403.64 700 403.64C684.68 403.64 668.74 404.45 668.5 420C667.55 482.63 725.27 524.33 697.63 560C671.02 594.33 628.82 560 560 560C490 560 490 560 420 560C350 560 350 560 280 560C210 560 210 560 140 560C70 560 35 595 0 560C-35 525 0 490 0 420C0 359.46 -32.09 319.94 0 298.92C37.91 274.08 73.6 334.05 140 328.28C182.49 324.59 217.78 309.49 217.78 280C217.78 242.92 186.15 198.31 140 195.15C77.26 190.86 38.9 280.43 0 265.11C-31.1 252.86 0 202.56 0 140C0 74.67 -14.68 63.14 0 9.33" stroke="rgba(130, 98, 81, 1)" stroke-width="2"></path><path d="M560 268C551.57 268 541.74 272.56 541.74 280C541.74 289.91 552.09 302.7 560 302.7C566.89 302.7 571.35 290.51 571.35 280C571.35 273.16 566.37 268 560 268" stroke="rgba(130, 98, 81, 1)" stroke-width="2"></path><path d="M1120 248.18C1091.75 252.42 1070 266.77 1070 280C1070 291.89 1094.23 291.89 1120 298.42C1189.23 315.96 1201.29 334.88 1260 328.13C1281.42 325.67 1280.26 302.95 1280.26 280C1280.26 264.63 1276.02 254.66 1260 251.48C1195.89 238.75 1186.75 238.16 1120 248.18" stroke="rgba(130, 98, 81, 1)" stroke-width="2"></path><path d="M0 87.11C26.62 87.11 82.07 113.96 82.07 140C82.07 165.72 26.91 190.64 0 190.64C-14.13 190.64 0 165.32 0 140C0 113.56 -14.42 87.11 0 87.11" stroke="rgba(130, 98, 81, 1)" stroke-width="2"></path><path d="M233.33 140C211.69 75.36 198.45 47.8 214.38 0C221.78 -22.2 247.19 0 280 0C296.4 0 309.62 -13.29 312.81 0C326.42 56.71 324.79 73.17 313.6 140C308.38 171.17 298.97 196 280 196C258.83 196 244.5 173.36 233.33 140" stroke="rgba(130, 98, 81, 1)" stroke-width="2"></path><path d="M465.86 140C505.19 98.85 506.96 84.86 560 71.75C624.03 55.92 636.45 61.26 700 82.13C740.36 95.38 754.19 101.51 767.81 140C789.19 200.45 789.38 217.64 770 280C755.48 326.73 736.47 358.18 700 358.18C660.79 358.18 658.5 319.9 618.65 280C588.5 249.81 592.93 218 560 218C516.43 218 465.65 241.58 465.65 280C465.65 331.23 512.15 339.23 560 397.3C569.83 409.23 574.35 406.19 581 420C613.51 487.54 645.23 513.88 638.31 560C634.73 583.88 599.15 560 560 560C490 560 490 560 420 560C350 560 350 560 280 560C256.66 560 254.52 568.07 233.33 560C184.52 541.41 180.47 506.67 140 506.67C115.74 506.67 130.66 549.79 103.87 560C60.66 576.46 22.12 589.81 0 560C-29.81 519.81 0 490 0 420C0 406.75 -11.13 396.01 0 393.51C58.87 380.32 73.41 405.28 140 388.62C213.41 370.25 213.22 361.13 280 323.45C309.47 306.82 305.28 300.46 332.5 280C375.28 247.85 383.89 256.14 420 218.24C450.57 186.14 435.19 172.09 465.86 140" stroke="rgba(130, 98, 81, 1)" stroke-width="2"></path><path d="M930.59 140C919.51 74.46 924.14 55.67 943.79 0C948.85 -14.33 961.89 0 980 0C1004.42 0 1016.82 -17.37 1028.84 0C1065.28 52.63 1090.31 81.31 1076.92 140C1065.89 188.37 1022.29 214.12 980 214.12C949.12 214.12 937.61 181.52 930.59 140" stroke="rgba(130, 98, 81, 1)" stroke-width="2"></path><path d="M1163.08 140C1142.8 86.84 1156.47 46.65 1188.77 0C1204.93 -23.35 1224.39 0 1260 0C1286.03 0 1290.8 -12.25 1312.05 0C1360.8 28.1 1354.66 80.71 1400 80.71C1449.07 80.71 1447.15 30.98 1500.88 0C1517.15 -9.38 1535.73 -15.29 1540 0C1555.29 54.71 1540 70 1540 140C1540 191.08 1549.58 194.24 1540 242.16C1535.58 264.24 1522.73 259.16 1512 280C1476.96 348.08 1483.99 352.07 1448.46 420C1427.99 459.13 1423.93 456.87 1400 494.12C1378.96 526.87 1389.42 545.46 1358.52 560C1319.42 578.4 1309.26 560 1260 560C1214.14 560 1199.94 582.62 1168.28 560C1129.94 532.62 1159.99 469.59 1120 460C1065.85 447.01 1052.13 505.98 980 514.84C912.13 523.17 897.59 523.64 840 494.38C804.26 476.22 793.33 453.59 793.33 420C793.33 396.57 812.35 392.1 840 380.33C905.69 352.37 910.74 338.02 980 340.54C1050.74 343.12 1049.65 366.57 1120 390.53C1166.32 406.3 1166.54 405.69 1213.33 420C1236.54 427.09 1237.35 433.33 1260 433.33C1273.41 433.33 1279.99 432.62 1285.45 420C1313.15 355.95 1333.45 345.36 1326.32 280C1320.72 228.69 1302.08 222.76 1260 186.67C1220.46 152.76 1178.41 180.18 1163.08 140" stroke="rgba(130, 98, 81, 1)" stroke-width="2"></path><path d="M526.21 140C526.21 127.2 540.11 116.78 560 115.5C627.01 111.18 631.8 117.89 700 128.8C708.37 130.14 711.53 131.75 713.13 140C726.18 207.35 734.3 214.16 729.3 280C727.74 300.52 715.26 312.73 700 312.73C683.59 312.73 682.37 296.97 665.95 280C612.37 224.6 614.39 222.49 560 168C544.52 152.49 526.21 153.45 526.21 140" stroke="rgba(130, 98, 81, 1)" stroke-width="2"></path><path d="M1260 50.91C1255.73 50.91 1250.18 21.4 1250.18 0C1250.18 -4.05 1255.09 0 1260 0C1263.59 0 1267.18 -3.12 1267.18 0C1267.18 22.34 1264.23 50.91 1260 50.91" stroke="rgba(130, 98, 81, 1)" stroke-width="2"></path><path d="M1314.44 140C1319.5 111.07 1356.83 128.58 1400 121.88C1469.61 111.08 1483.92 97.74 1540 105C1553.92 106.8 1540 122.5 1540 140C1540 143.78 1542.15 144.49 1540 147.57C1493.15 214.49 1484.87 210.23 1442 280C1414.87 324.17 1417.83 375.45 1400 375.45C1383.01 375.45 1389.31 326.63 1372.37 280C1346.53 208.9 1305.68 190.13 1314.44 140" stroke="rgba(130, 98, 81, 1)" stroke-width="2"></path><path d="M330 420C344.65 374.55 380.68 353.68 420 353.68C448.18 353.68 439.15 389.56 465 420C509.15 471.98 517.26 466.02 560 518.52C574.25 536.02 578.98 545.35 578.98 560C578.98 566.09 569.49 560 560 560C490 560 490 560 420 560C386.75 560 367.86 582.33 353.5 560C322.86 512.33 311.4 477.71 330 420" stroke="rgba(130, 98, 81, 1)" stroke-width="2"></path><path d="M1228.62 560C1228.62 546.34 1243.94 516.67 1260 516.67C1276.48 516.67 1293.7 546.58 1293.7 560C1293.7 568.24 1276.85 560 1260 560C1244.31 560 1228.62 568.01 1228.62 560" stroke="rgba(130, 98, 81, 1)" stroke-width="2"></path></g><defs><mask id="SvgjsMask1004"><rect width="1440" height="560" fill="#ffffff"></rect></mask></defs></svg>